<?xml version="1.0" encoding="UTF-8" standalone="no"?>
<!-- Generated by graphviz version 2.26.3 (20100126.1600)
 -->

<!-- Title: 1 Pages: 1 -->

<svg
   xmlns:dc="http://purl.org/dc/elements/1.1/"
   xmlns:cc="http://creativecommons.org/ns#"
   xmlns:rdf="http://www.w3.org/1999/02/22-rdf-syntax-ns#"
   xmlns:svg="http://www.w3.org/2000/svg"
   xmlns="http://www.w3.org/2000/svg"
   xmlns:sodipodi="http://sodipodi.sourceforge.net/DTD/sodipodi-0.dtd"
   xmlns:inkscape="http://www.inkscape.org/namespaces/inkscape"
   width="432pt"
   height="81pt"
   viewBox="0.00 0.00 432.00 81.00"
   id="svg2"
   version="1.1"
   inkscape:version="0.48.3.1 r9886"
   sodipodi:docname="rtn.svg">
  <metadata
     id="metadata59">
    <rdf:RDF>
      <cc:Work
         rdf:about="">
        <dc:format>image/svg+xml</dc:format>
        <dc:type
           rdf:resource="http://purl.org/dc/dcmitype/StillImage" />
      </cc:Work>
    </rdf:RDF>
  </metadata>
  <defs
     id="defs57" />
  <sodipodi:namedview
     pagecolor="#ffffff"
     bordercolor="#666666"
     borderopacity="1"
     objecttolerance="10"
     gridtolerance="10"
     guidetolerance="10"
     inkscape:pageopacity="0"
     inkscape:pageshadow="2"
     inkscape:window-width="1301"
     inkscape:window-height="744"
     id="namedview55"
     showgrid="false"
     inkscape:zoom="1.5294458"
     inkscape:cx="270"
     inkscape:cy="50.625"
     inkscape:window-x="65"
     inkscape:window-y="24"
     inkscape:window-maximized="1"
     inkscape:current-layer="svg2" />
  <g
     class="node"
     id="node1"
     transform="translate(4,77)">
    <title
       id="title10">node1</title>
    <polygon
       style="fill:none;stroke:#000000"
       id="polygon12"
       points="0,-1.06581e-14 98,0 98,-36 98,-36 7.10543e-15,-36 " />
    <text
       style="font-size:14px;text-anchor:middle;font-family:'Times Roman,serif'"
       id="text14"
       font-size="14.00"
       y="-13.9"
       x="49">NounChunk</text>
  </g>
  <g
     class="node"
     id="node2"
     transform="translate(4,77)">
    <title
       id="title17">node2</title>
    <ellipse
       style="fill:none;stroke:#000000"
       sodipodi:ry="18"
       sodipodi:rx="18"
       sodipodi:cy="-50"
       sodipodi:cx="211"
       d="m 229,-50 c 0,9.941125 -8.05887,18 -18,18 -9.94113,0 -18,-8.058875 -18,-18 0,-9.941125 8.05887,-18 18,-18 9.94113,0 18,8.058875 18,18 z"
       id="ellipse19"
       ry="18"
       rx="18"
       cy="-50"
       cx="211" />
  </g>
  <g
     class="edge"
     id="edge2"
     transform="translate(4,77)">
    <title
       id="title22">node1-&gt;node2</title>
    <path
       style="fill:none;stroke:#000000"
       inkscape:connector-curvature="0"
       id="path24"
       d="m 98.045,-27.6879 c 27.942,-5.5195 61.927,-12.2324 85.275,-16.8445" />
    <polygon
       style="fill:#000000;stroke:#000000"
       id="polygon26"
       points="184.108,-41.1202 182.751,-47.9875 182.751,-47.9875 193.24,-46.4918 " />
    <text
       style="font-size:14px;text-anchor:middle;font-family:'Times Roman,serif'"
       id="text28"
       font-size="14.00"
       y="-41.400002"
       x="134">noun</text>
  </g>
  <g
     class="node"
     id="node3"
     transform="translate(4,77)">
    <title
       id="title31">node3</title>
    <ellipse
       style="fill:none;stroke:#000000"
       sodipodi:ry="18"
       sodipodi:rx="18"
       sodipodi:cy="-18"
       sodipodi:cx="406"
       d="m 424,-18 c 0,9.9411255 -8.05887,18 -18,18 -9.94113,0 -18,-8.0588745 -18,-18 0,-9.941125 8.05887,-18 18,-18 9.94113,0 18,8.058875 18,18 z"
       id="ellipse33"
       ry="18"
       rx="18"
       cy="-18"
       cx="406" />
  </g>
  <g
     class="edge"
     id="edge4"
     transform="translate(4,77)">
    <title
       id="title36">node2-&gt;node3</title>
    <path
       style="fill:none;stroke:#000000"
       inkscape:connector-curvature="0"
       id="path38"
       d="m 228.996,-47.0469 c 34.101,5.5961 108.35,17.7806 149.009,24.4529" />
    <polygon
       style="fill:#000000;stroke:#000000"
       id="polygon40"
       points="377.613,-19.1116 378.747,-26.0192 378.747,-26.0192 388.048,-20.946 " />
    <text
       style="font-size:14px;text-anchor:middle;font-family:'Times Roman,serif'"
       id="text42"
       font-size="14.00"
       y="-60.400002"
       x="320">attributes,</text>
    <text
       style="font-size:14px;text-anchor:middle;font-family:'Times Roman,serif'"
       id="text44"
       font-size="14.00"
       y="-43.400002"
       x="320">coordinators...</text>
  </g>
  <g
     class="edge"
     id="edge6"
     transform="translate(4,77)">
    <title
       id="title47">node3-&gt;node1</title>
    <path
       style="fill:none;stroke:#000000"
       inkscape:connector-curvature="0"
       id="path49"
       d="M 387.94,-15.8469 C 348.428,-11.4074 251.335,-1.9767 170,-6 149.801,-6.99914 127.775,-8.93099 108.118,-10.9575" />
    <polygon
       style="fill:#000000;stroke:#000000"
       id="polygon51"
       points="108.39,-14.4482 107.652,-7.48721 107.652,-7.48721 98.0764,-12.0215 " />
    <text
       style="font-size:14px;text-anchor:middle;font-family:'Times Roman,serif'"
       id="text53"
       font-size="14.00"
       y="-10.4"
       x="211">NounChunk</text>
  </g>
</svg>
