<?xml version="1.0" encoding="UTF-8" standalone="no"?>
<!DOCTYPE svg PUBLIC "-//W3C//DTD SVG 1.1//EN"
 "http://www.w3.org/Graphics/SVG/1.1/DTD/svg11.dtd">
<!-- Generated by graphviz version 2.26.3 (20100126.1600)
 -->
<!-- Title: 1 Pages: 1 -->
<svg width="432pt" height="81pt"
 viewBox="0.00 0.00 432.00 81.00" xmlns="http://www.w3.org/2000/svg" xmlns:xlink="http://www.w3.org/1999/xlink">
<g id="graph1" class="graph" transform="scale(1 1) rotate(0) translate(4 77)">
<title>1</title>
<polygon fill="white" stroke="white" points="-4,5 -4,-77 429,-77 429,5 -4,5"/>
<!-- node1 -->
<g id="node1" class="node"><title>node1</title>
<polygon fill="none" stroke="black" points="98,-36 7.10543e-15,-36 0,-1.06581e-14 98,-0 98,-36"/>
<text text-anchor="middle" x="49" y="-13.9" font-family="Times Roman,serif" font-size="14.00">NounChunk</text>
</g>
<!-- node2 -->
<g id="node2" class="node"><title>node2</title>
<ellipse fill="none" stroke="black" cx="211" cy="-50" rx="18" ry="18"/>
</g>
<!-- node1&#45;&gt;node2 -->
<g id="edge2" class="edge"><title>node1&#45;&gt;node2</title>
<path fill="none" stroke="black" d="M98.045,-27.6879C125.987,-33.2074 159.972,-39.9203 183.32,-44.5324"/>
<polygon fill="black" stroke="black" points="182.751,-47.9875 193.24,-46.4918 184.108,-41.1202 182.751,-47.9875"/>
<text text-anchor="middle" x="134" y="-41.4" font-family="Times Roman,serif" font-size="14.00">noun</text>
</g>
<!-- node3 -->
<g id="node3" class="node"><title>node3</title>
<ellipse fill="none" stroke="black" cx="406" cy="-18" rx="18" ry="18"/>
</g>
<!-- node2&#45;&gt;node3 -->
<g id="edge4" class="edge"><title>node2&#45;&gt;node3</title>
<path fill="none" stroke="black" d="M228.996,-47.0469C263.097,-41.4508 337.346,-29.2663 378.005,-22.594"/>
<polygon fill="black" stroke="black" points="378.747,-26.0192 388.048,-20.946 377.613,-19.1116 378.747,-26.0192"/>
<text text-anchor="middle" x="320" y="-60.4" font-family="Times Roman,serif" font-size="14.00">attributes,</text>
<text text-anchor="middle" x="320" y="-43.4" font-family="Times Roman,serif" font-size="14.00">coordinators...</text>
</g>
<!-- node3&#45;&gt;node1 -->
<g id="edge6" class="edge"><title>node3&#45;&gt;node1</title>
<path fill="none" stroke="black" d="M387.94,-15.8469C348.428,-11.4074 251.335,-1.9767 170,-6 149.801,-6.99914 127.775,-8.93099 108.118,-10.9575"/>
<polygon fill="black" stroke="black" points="107.652,-7.48721 98.0764,-12.0215 108.39,-14.4482 107.652,-7.48721"/>
<text text-anchor="middle" x="211" y="-10.4" font-family="Times Roman,serif" font-size="14.00">NounChunk</text>
</g>
</g>
</svg>
